<svg xmlns="http://www.w3.org/2000/svg" width="32" height="32" viewBox="0 0 32 32">
    <g fill="none" fill-rule="evenodd">
        <g fill="#FFB71B" fill-rule="nonzero">
            <g>
                <path d="M16 0C7.157 0 0 7.156 0 16c0 8.843 7.156 16 16 16 3.107 0 6.151-.912 8.736-2.595.775-.504.944-1.567.358-2.282l-.656-.802c-.495-.605-1.367-.753-2.024-.331C20.51 27.21 18.278 27.87 16 27.87 9.454 27.871 4.129 22.546 4.129 16S9.454 4.129 16 4.129c6.46 0 11.871 3.717 11.871 10.323 0 2.502-1.36 5.144-3.753 5.4-1.12-.03-1.09-.83-.87-1.938l1.512-7.813c.185-.956-.547-1.843-1.52-1.843h-2.902c-.443 0-.816.333-.866.774v.006c-.95-1.155-2.61-1.405-3.87-1.405-4.812 0-8.892 4.015-8.892 9.772 0 4.213 2.373 6.83 6.193 6.83 1.741 0 3.701-1.009 4.838-2.473.615 2.2 2.62 2.2 4.562 2.2 7.027 0 9.697-4.62 9.697-9.51C32 5.655 24.905 0 16 0zm-1.399 19.64c-1.435 0-2.327-1.007-2.327-2.63 0-2.903 1.986-4.692 3.783-4.692 1.438 0 2.297.983 2.297 2.63 0 2.908-2.186 4.693-3.753 4.693z" transform="translate(-910 -685) translate(910 685)"/>
            </g>
        </g>
    </g>
</svg>
