<svg xmlns="http://www.w3.org/2000/svg" width="36" height="36" viewBox="0 0 36 36">
    <g fill="none" fill-rule="evenodd">
        <g fill="#FFB71B" fill-rule="nonzero">
            <g>
                <path d="M0 28.498V31.5C0 33.982 6.047 36 13.5 36S27 33.982 27 31.5v-3.002c-2.904 2.046-8.212 3.002-13.5 3.002-5.287 0-10.596-.956-13.5-3.002zM22.5 9C29.953 9 36 6.982 36 4.5S29.953 0 22.5 0 9 2.018 9 4.5 15.047 9 22.5 9zM0 21.122v3.628c0 2.482 6.047 4.5 13.5 4.5S27 27.232 27 24.75v-3.628c-2.904 2.39-8.22 3.628-13.5 3.628-5.28 0-10.596-1.238-13.5-3.628zm29.25.773C33.279 21.115 36 19.666 36 18v-3.002c-1.631 1.153-4.029 1.94-6.75 2.425v4.472zM13.5 11.25C6.047 11.25 0 13.767 0 16.875S6.047 22.5 13.5 22.5 27 19.983 27 16.875s-6.047-5.625-13.5-5.625zm15.42 3.959c4.218-.76 7.08-2.25 7.08-3.959V8.248c-2.496 1.764-6.785 2.714-11.3 2.939 2.075 1.005 3.6 2.355 4.22 4.022z" transform="translate(-130 -681) translate(130 681)"/>
            </g>
        </g>
    </g>
</svg>
