<?xml version="1.0" encoding="utf-8"?>
<!-- Generator: Adobe Illustrator 25.0.1, SVG Export Plug-In . SVG Version: 6.00 Build 0)  -->
<svg version="1.1" id="Layer_3" xmlns="http://www.w3.org/2000/svg" xmlns:xlink="http://www.w3.org/1999/xlink" x="0px" y="0px"
	 viewBox="0 0 1796.24 200.38" style="enable-background:new 0 0 1796.24 200.38;" xml:space="preserve">
<style type="text/css">
	.st0{fill:#D61334;}
	.st1{fill:#1A2238;}
</style>
<path class="st0" d="M211.85-0.67c-19.05,1.2-34.06,9.31-43.69,21.55V10.45c0-6.33-5.25-11.44-11.63-11.21
	c-6.38-0.23-11.63,4.88-11.63,11.21v10.42C135.26,8.64,120.24,0.53,101.2-0.67C77.67-2.15,51.42,13.47,39.4,31.74l10.48-6.79
	c9.35-4.99,18.66-10.34,29.38-11.7c15.26-1.94,30.44,7.55,38.9,19.85c12.27,17.83,11.94,41.58,5.03,61.38
	c-9.34,26.78-29.5,51.08-54.53,64.53c-0.04,0.02-0.06,0.03-0.08,0.04c0.04-0.01,0.11-0.04,0.22-0.05c3.63-0.56,7.28-1.01,10.84-1.89
	c5.17-1.28,10.25-2.95,15.17-4.98c7.06-2.91,13.82-6.58,20.12-10.9c14.22-9.73,26.14-22.8,34.33-37.98c2.65-4.9,4.31-8.3,7.25-14.73
	c2.94,6.43,4.6,9.83,7.25,14.73c8.2,15.18,20.11,28.25,34.33,37.98c6.3,4.31,13.06,7.98,20.12,10.9c4.93,2.03,10,3.7,15.17,4.98
	c3.57,0.88,7.21,1.33,10.84,1.89c0.12,0.02,0.19,0.04,0.22,0.05c-0.02-0.01-0.04-0.02-0.08-0.04
	c-25.03-13.45-45.19-37.75-54.53-64.53c-6.91-19.81-7.24-43.55,5.03-61.38c8.46-12.3,23.64-21.79,38.9-19.85
	c10.71,1.36,20.03,6.71,29.38,11.7c0,0,10.48,6.79,10.48,6.79C261.62,13.47,235.37-2.15,211.85-0.67z"/>
<path class="st1" d="M50.52,82.39c0,0,9.32-20.65,9.34-20.68c4.44-9.83-4.31-14.53-12.42-9.03c-3.47,2.36-6.08,5.79-7.99,9.47
	c-0.37,0.71-3.36,5.75-3.02,6.23c-2.84-4.04-5.08-8.51-5.98-13.33c-1.68-9.04,8.96-23.31,8.96-23.31s0,0,0,0l0,0
	C49.38,16.58,69.14,3.26,89.03,0l0,0c-6.26,0.53-13.62,1.17-15.25,1.34C42.84,4.39,8.7,20.58,1.29,53.56
	c-1.8,7.99-1.57,16.34-0.25,24.39c3.96,24.17,14.61,47.7,28.12,67.97c5.69,8.54,12.11,16.61,19.32,23.93
	c6.06,6.14,12.68,11.79,19.86,16.59c9.22,6.16,19.39,9.99,29.81,13.59c0.52,0.18,1.05,0.36,1.57,0.54c0.11,0.04,0.22,0.08,0.33,0.11
	c0.58,0.2-1.41-1.57-2.68-2.55c-2.77-2.12-5.4-4.39-7.94-6.75c-2.32-2.16-4.84-4.04-7.07-6.32c-4.42-4.52-8.25-9.62-11.35-15.13
	c-7.02-12.49-10.51-27.06-12.04-41.21c-0.16-1.45-0.29-2.91-0.41-4.37c0,0,18.41,20.72,97.55,12.04c0,0-57.51-12.88-97.27-47.6
	C56.21,86.49,53.35,84.48,50.52,82.39z"/>
<path class="st1" d="M262.52,82.39c0,0-9.32-20.65-9.34-20.68c-4.44-9.83,4.31-14.53,12.42-9.03c3.47,2.36,6.08,5.79,7.99,9.47
	c0.37,0.71,3.36,5.75,3.02,6.23c2.84-4.04,5.08-8.51,5.98-13.33c1.68-9.04-8.96-23.31-8.96-23.31l0,0l0,0
	C263.67,16.58,243.9,3.26,224.02,0l0,0c6.26,0.53,13.62,1.17,15.25,1.34c30.94,3.06,65.08,19.24,72.49,52.23
	c1.8,7.99,1.57,16.34,0.25,24.39c-3.96,24.17-14.61,47.7-28.12,67.97c-5.69,8.54-12.11,16.61-19.32,23.93
	c-6.06,6.14-12.68,11.79-19.86,16.59c-9.22,6.16-19.39,9.99-29.81,13.59c-0.52,0.18-1.05,0.36-1.57,0.54
	c-0.11,0.04-0.22,0.08-0.33,0.11c-0.58,0.2,1.41-1.57,2.68-2.55c2.77-2.12,5.4-4.39,7.94-6.75c2.32-2.16,4.84-4.04,7.07-6.32
	c4.42-4.52,8.25-9.62,11.35-15.13c7.02-12.49,10.51-27.06,12.04-41.21c0.16-1.45,0.29-2.91,0.41-4.37c0,0-18.41,20.72-97.55,12.04
	c0,0,57.51-12.88,97.27-47.6C256.83,86.49,259.69,84.48,262.52,82.39z"/>
<path class="st0" d="M440.85,35.64h-74.49V0h189.9v35.64h-74.49v164.74h-40.92V35.64z"/>
<path class="st0" d="M599.9,0h171.83v35.64h-130.9v40h115.93v33.46H640.83v55.77h133.61v35.51H599.9V0z"/>
<path class="st0" d="M888.69,0h43.38l97.6,200.38h-42.99l-16.14-33.72H852.67l-15.62,33.72h-43.12L888.69,0z M954.4,133.21
	l-43.64-91.03l-42.47,91.03H954.4z"/>
<path class="st0" d="M1061.16,0h40.92l73.33,73.08L1248.74,0h40.92v200.38h-40.92V56.28l-73.33,70.13l-73.33-70.13v144.1h-40.92V0z"
	/>
<path class="st1" d="M1347.11,0h102.63c15.49,0,28.92,1.6,40.28,4.81c11.36,3.21,20.79,7.84,28.27,13.91
	c7.49,6.07,13.06,13.46,16.72,22.18c3.66,8.72,5.49,18.59,5.49,29.62c0,7.44-0.9,14.51-2.71,21.22c-1.81,6.71-4.58,12.89-8.33,18.53
	c-3.74,5.64-8.46,10.66-14.14,15.06c-5.68,4.4-12.35,8.06-20.01,10.96l43.89,64.1h-50.09l-37.95-56.92H1450l-61.96-0.13v57.05
	h-40.92V0z M1450.77,108.21c7.74,0,14.52-0.9,20.33-2.69c5.81-1.79,10.67-4.31,14.59-7.56c3.92-3.25,6.84-7.2,8.78-11.86
	c1.94-4.66,2.91-9.85,2.91-15.58c0-11.2-3.87-19.85-11.62-25.96c-7.75-6.11-19.41-9.17-34.99-9.17h-62.74v72.82H1450.77z"/>
<path class="st1" d="M1588.78,0h40.92v52.31h125.48V0h41.05v200.38h-41.05V87.05H1629.7v113.33h-40.92V0z"/>
</svg>
