<svg xmlns="http://www.w3.org/2000/svg" xmlns:xlink="http://www.w3.org/1999/xlink" width="1400" height="700" viewBox="0 0 1400 700">
    <defs>
        <path id="mr7i4ym38a" d="M0 0H1400V700H0z"/>
    </defs>
    <g fill="none" fill-rule="evenodd">
        <g>
            <g transform="translate(0 -81) translate(0 81)">
                <mask id="q09qkxapub" fill="#fff">
                    <use xlink:href="#mr7i4ym38a"/>
                </mask>
                <use fill="#1A2238" xlink:href="#mr7i4ym38a"/>
                <g fill-rule="nonzero" stroke="#2B3976" stroke-width="6" mask="url(#q09qkxapub)">
                    <g>
                        <path d="M304.377 48.411c25.816 34.366 27.096 85.809 9.814 121.669s-53.34 55.924-90.892 74.708c-37.551 18.784-76.596 36.287-118.628 28.176-42.032-7.898-87.265-41.623-96.226-82.82-8.96-41.41 18.136-90.29 52.487-126.577C95.496 27.28 137.102 3.587 182.974.385c45.873-3.202 95.8 13.66 121.403 48.026z" transform="translate(1212.574 217.42)"/>
                        <path d="M460 318.765c30.933 70.764 23.3 177.313-28.524 212.696-51.824 34.98-147.84-1.207-240.24-63.528C99.24 406.014 10.857 317.56 28.534 265.29c17.275-52.27 140.608-68.755 236.222-59.91C360.77 214.228 429.467 248.404 460 318.766z" transform="translate(1212.574 217.42) rotate(10 252.26 374.117)"/>
                    </g>
                </g>
                <g fill-rule="nonzero" stroke="#2B3976" stroke-width="6" mask="url(#q09qkxapub)">
                    <g>
                        <path d="M390.922 308.058c25.816 34.366 27.096 85.808 9.814 121.668s-53.34 55.925-90.891 74.709c-37.552 18.784-76.597 36.287-118.629 28.176-42.032-7.898-87.264-41.624-96.225-82.82-8.962-41.41 18.135-90.29 52.486-126.578 34.565-36.287 76.17-59.98 122.042-63.182 45.873-3.202 95.8 13.661 121.403 48.027z" transform="translate(-265.26 -198.647) matrix(1 0 0 -1 0 794.293)"/>
                        <path d="M460 152.295c30.933 70.764 23.3 177.313-28.524 212.695-51.824 34.98-147.84-1.206-240.24-63.527C99.24 239.543 10.857 151.088 28.534 98.819 45.808 46.55 169.141 30.065 264.755 38.91 360.77 47.756 429.467 81.932 460 152.295z" transform="translate(-265.26 -198.647) rotate(-170 252.26 207.647)"/>
                    </g>
                </g>
            </g>
        </g>
    </g>
</svg>
