<svg xmlns="http://www.w3.org/2000/svg" width="42" height="32" viewBox="0 0 42 32">
    <g fill="none" fill-rule="evenodd">
        <g fill="#FFB71B" fill-rule="nonzero">
            <g>
                <path d="M41.143 13.143v1.143c0 .947-.768 1.714-1.715 1.714h-.571l-1.865 13.056C36.75 30.746 35.304 32 33.598 32H7.545c-1.706 0-3.153-1.255-3.394-2.944L2.286 16h-.572C.767 16 0 15.233 0 14.286v-1.143c0-.947.767-1.714 1.714-1.714h4.81L14.151.942c.743-1.021 2.172-1.247 3.193-.505 1.021.743 1.247 2.172.504 3.193l-5.671 7.799h16.789L23.294 3.63c-.742-1.02-.517-2.45.504-3.193 1.021-.742 2.45-.516 3.193.504l7.627 10.488h4.81c.947 0 1.715.767 1.715 1.714zM22.286 25.714v-8c0-.946-.768-1.714-1.715-1.714-.946 0-1.714.768-1.714 1.714v8c0 .947.768 1.715 1.714 1.715.947 0 1.715-.768 1.715-1.715zm8 0v-8c0-.946-.768-1.714-1.715-1.714-.947 0-1.714.768-1.714 1.714v8c0 .947.767 1.715 1.714 1.715s1.715-.768 1.715-1.715zm-16 0v-8c0-.946-.768-1.714-1.715-1.714-.946 0-1.714.768-1.714 1.714v8c0 .947.768 1.715 1.714 1.715.947 0 1.715-.768 1.715-1.715z" transform="translate(-523 -681) translate(523 681)"/>
            </g>
        </g>
    </g>
</svg>
