<?xml version="1.0" encoding="UTF-8"?>
<svg width="38px" height="24px" viewBox="0 0 38 24" version="1.1" xmlns="http://www.w3.org/2000/svg" xmlns:xlink="http://www.w3.org/1999/xlink">
    <title>team-RH-logo-white-red</title>
    <g id="Shop" stroke="none" stroke-width="1" fill="none" fill-rule="evenodd">
        <g id="Shop-front-mobile" transform="translate(-105.000000, -16.000000)" fill-rule="nonzero">
            <g id="team-RH-icon" transform="translate(105.052993, 16.041106)">
                <path d="M25.155367,0.017010775 C22.893918,0.159281213 21.1104232,1.12262875 19.9671454,2.57415917 L19.9671454,1.33789415 C19.9434453,0.59221856 19.3321049,0 18.5860528,0 C17.8400007,0 17.2286603,0.59221856 17.2049602,1.33789415 L17.2049602,2.57555398 C16.0607525,1.12262875 14.2758629,0.157886405 12.0167386,0.0184055832 C9.22479747,-0.158270124 6.10833098,1.69635986 4.68051231,3.86435676 L5.9256111,3.05908749 C7.03494857,2.466294 8.14149642,1.83165626 9.41263164,1.66985851 C11.2258823,1.43971515 13.0279745,2.56672019 14.0322364,4.02708439 C15.4893461,6.14254351 15.4502915,8.96377559 14.6301442,11.3154222 C13.5208068,14.49512 11.1273159,17.3800484 8.15497957,18.9775687 L8.14521591,18.9822181 C8.15375012,18.9789723 8.16265044,18.9767862 8.17171727,18.975709 C8.602713,18.9092231 9.03603342,18.8562204 9.45912525,18.7511448 C10.0736411,18.5989175 10.6759967,18.4012404 11.2612175,18.1597461 C12.1003586,17.8127517 12.900979,17.3790953 13.650059,16.8658291 C15.3476047,15.7072664 16.7451024,14.1613971 17.7270834,12.3559492 C18.0413802,11.7738492 18.2385131,11.3707496 18.5876801,10.6068597 C18.9368471,11.3707496 19.1344449,11.7738492 19.4482767,12.3559492 C20.4302577,14.1613971 21.8277554,15.7072664 23.5253011,16.8658291 C24.2745441,17.3790976 25.0753189,17.8127532 25.9146076,18.1597461 C26.4996697,18.4012395 27.1018707,18.5989168 27.7162349,18.7511448 C28.1397917,18.8562204 28.5731121,18.9092231 29.0036429,18.975709 C29.0128682,18.9767437 29.0219276,18.9789305 29.0306092,18.9822181 L29.0208455,18.9775687 C26.0485092,17.3800484 23.6550183,14.49512 22.5456808,11.3154222 C21.7255336,8.96377559 21.686479,6.14254351 23.1426588,4.02708439 C24.1469207,2.56672019 25.9499428,1.43971515 27.7617986,1.66985851 C29.0343287,1.83165626 30.1404116,2.466294 31.2488192,3.05908749 L32.4948478,3.86435676 C31.0674941,1.69635986 27.9510276,-0.158270124 25.155367,0.017010775 Z" id="Path" fill="#D61334"></path>
                <path d="M6,9.88062953 C6,9.88062953 7.10701366,7.42855669 7.10840847,7.4248372 C7.63564598,6.25738272 6.59697879,5.6989945 5.63363125,6.35269462 C5.22076802,6.63165626 4.9111206,7.04033507 4.68423179,7.4764451 C4.64099274,7.5601336 4.28578158,8.15943619 4.32576608,8.21615839 C3.98868743,7.73634437 3.72134919,7.20631725 3.6158087,6.63537575 C3.41774594,5.55951368 4.68051231,3.86435676 4.68051231,3.86435676 L4.68051231,3.86435676 C5.86516942,2.06458923 8.21402645,0.482411782 10.573577,0.0983745875 L10.573577,0.0983745875 C9.8296793,0.161605893 8.95652935,0.237855409 8.76032633,0.256917788 C5.08733137,0.619567923 1.03308883,2.54207858 0.15342978,6.45823511 C-0.0599758768,7.40716963 -0.0325446486,8.39841333 0.124138807,9.35385696 C0.596978792,12.2225125 1.86206984,15.0163134 3.46516942,17.4228225 C4.13780673,18.4403734 4.90578053,19.3915836 5.75869906,20.2635819 C6.47599189,20.9985944 7.26627614,21.6586445 8.11731975,22.233516 C9.21224419,22.9648604 10.4196832,23.4204978 11.657343,23.8468442 L11.8433174,23.9114703 L11.8823721,23.9244885 C11.9511826,23.9486652 11.7149951,23.7385141 11.5634259,23.6222801 C11.2342512,23.3707496 10.9222791,23.1015517 10.6210005,22.8211952 C10.3452934,22.5650154 10.0463395,22.3413812 9.78411556,22.0712533 C9.25795885,21.5338602 8.80464575,20.9297033 8.43580095,20.2742754 C7.60217058,18.7915943 7.18837747,17.0611022 7.00612253,15.3812882 C6.98752509,15.2089519 6.97125233,15.0361506 6.95730425,14.8628845 C6.95730425,14.8628845 9.14250378,17.3233262 18.5407215,16.2925629 C18.5407215,16.2925629 11.7122054,14.7629232 6.99077964,10.6403351 C6.67648286,10.3669527 6.33707953,10.1279755 6,9.88062953 Z" id="Path" fill="#FFFFFF"></path>
                <path d="M31.1748943,9.88062953 L30.0660218,7.4248372 C29.5392492,6.25738272 30.5774515,5.6989945 31.541264,6.35269462 C31.9536622,6.63165626 32.2633097,7.04033507 32.4901985,7.4764451 C32.5339025,7.5601336 32.8891136,8.15943619 32.8486642,8.21615839 C33.1862078,7.73634437 33.4530811,7.20631725 33.5590865,6.63537575 C33.7566843,5.55951368 32.4948478,3.86435676 32.4948478,3.86435676 L32.4948478,3.86435676 C31.3106557,2.06458923 28.9613337,0.482411782 26.6022481,0.0983745875 L26.6022481,0.0983745875 C27.3461458,0.161605893 28.2188308,0.237855409 28.4154987,0.256917788 C32.0884937,0.619567923 36.1422713,2.54207858 37.0223953,6.45823511 C37.235801,7.40716963 37.2083697,8.39841333 37.0516863,9.35385696 C36.5788463,12.2225125 35.31515,15.0163134 33.7101907,17.4228225 C33.0375534,18.4403734 32.2695796,19.3915836 31.4166611,20.2635819 C30.700246,20.9984461 29.9109022,21.6584915 29.06083,22.233516 C27.9659056,22.9648604 26.7584666,23.4204978 25.5208068,23.8468442 L25.3348323,23.9114703 L25.2962426,23.9244885 C25.2269672,23.9486652 25.4636196,23.7385141 25.6151888,23.6222801 C25.9443635,23.3707496 26.2563356,23.1015517 26.5576142,22.8211952 C26.8333213,22.5650154 27.1322752,22.3413812 27.3944991,22.0712533 C27.9205173,21.5337413 28.3738161,20.9296035 28.7428137,20.2742754 C29.5764441,18.7915943 29.9902372,17.0611022 30.1724922,15.3812882 C30.1910896,15.2089519 30.2065875,15.0361506 30.2189858,14.8628845 C30.2189858,14.8628845 28.0337862,17.3233262 18.6360334,16.2925629 C18.6360334,16.2925629 25.4645495,14.7629232 30.1859753,10.6403351 C30.4988773,10.3669527 30.8387455,10.1279755 31.1748943,9.88062953 Z" id="Path" fill="#FFFFFF"></path>
            </g>
        </g>
    </g>
</svg>