<svg xmlns="http://www.w3.org/2000/svg" width="45" height="29" viewBox="0 0 45 29">
    <g fill="none" fill-rule="evenodd">
        <g fill-rule="nonzero">
            <g>
                <path fill="#D61334" d="M30.45.07c-2.733.172-4.888 1.336-6.27 3.09V1.666C24.152.766 23.413.05 22.512.05c-.902 0-1.64.715-1.67 1.616v1.496C19.46 1.406 17.304.24 14.575.072 11.2-.142 7.434 2.099 5.709 4.719l1.504-.973c1.34-.716 2.678-1.483 4.214-1.679 2.191-.278 4.369 1.084 5.582 2.849 1.76 2.556 1.713 5.965.722 8.806-1.34 3.843-4.232 7.329-7.824 9.259l-.011.006c.01-.004.02-.007.032-.008.52-.08 1.044-.145 1.555-.272.743-.184 1.47-.422 2.178-.714 1.014-.42 1.981-.944 2.886-1.564 2.051-1.4 3.74-3.268 4.927-5.45.38-.703.618-1.19 1.04-2.113.421.923.66 1.41 1.04 2.114 1.186 2.181 2.875 4.05 4.926 5.45.905.62 1.873 1.143 2.887 1.563.707.292 1.434.53 2.177.714.512.127 1.035.191 1.555.272.012 0 .023.004.033.008l-.012-.006c-3.591-1.93-6.483-5.416-7.824-9.259-.99-2.841-1.038-6.25.721-8.806C29.231 3.15 31.41 1.789 33.6 2.067c1.538.196 2.874.963 4.213 1.68l1.506.972C37.593 2.1 33.828-.14 30.449.07z" transform="translate(-165 -16) translate(165 16)"/>
                <path fill="#1A2238" d="M7.303 11.989l1.34-2.968c.637-1.41-.618-2.085-1.782-1.295-.5.337-.873.83-1.148 1.358-.052.1-.481.825-.433.894-.407-.58-.73-1.22-.858-1.91-.239-1.3 1.287-3.349 1.287-3.349C7.14 2.544 9.979.633 12.829.17c-.898.076-1.953.168-2.19.191C6.2.798 1.302 3.121.239 7.853-.02 9 .014 10.198.203 11.353c.572 3.466 2.1 6.841 4.037 9.75.813 1.229 1.741 2.378 2.772 3.432.867.888 1.821 1.686 2.85 2.38 1.323.884 2.782 1.434 4.277 1.95l.225.078.047.015c.083.03-.202-.224-.385-.365-.398-.304-.775-.629-1.139-.968-.333-.31-.694-.58-1.011-.906-.636-.65-1.184-1.38-1.63-2.171-1.007-1.792-1.507-3.883-1.727-5.913-.022-.208-.042-.417-.059-.626 0 0 2.64 2.973 13.997 1.728 0 0-8.251-1.849-13.956-6.83-.38-.33-.79-.62-1.198-.918zM37.723 11.989l-1.34-2.968c-.636-1.41.618-2.085 1.783-1.295.498.337.872.83 1.146 1.358.053.1.482.825.434.894.407-.58.73-1.22.858-1.91.239-1.3-1.286-3.349-1.286-3.349-1.43-2.175-4.27-4.086-7.12-4.55.899.076 1.953.168 2.19.191 4.439.438 9.337 2.761 10.4 7.493.259 1.147.225 2.345.036 3.5-.571 3.466-2.098 6.841-4.037 9.75-.813 1.229-1.741 2.378-2.772 3.432-.865.888-1.82 1.685-2.846 2.38-1.323.884-2.782 1.434-4.278 1.95l-.225.078-.046.015c-.084.03.202-.224.385-.365.398-.304.775-.629 1.139-.968.333-.31.694-.58 1.011-.906.636-.65 1.183-1.38 1.63-2.171 1.007-1.792 1.507-3.883 1.727-5.913.022-.208.041-.417.056-.626 0 0-2.64 2.973-13.996 1.728 0 0 8.251-1.849 13.956-6.83.378-.33.789-.62 1.195-.918z" transform="translate(-165 -16) translate(165 16)"/>
            </g>
        </g>
    </g>
</svg>
