<svg xmlns="http://www.w3.org/2000/svg" xmlns:xlink="http://www.w3.org/1999/xlink" width="1401" height="301" viewBox="0 0 1401 301">
    <defs>
        <path id="3o0270nfka" d="M0.43 0.941H1400.43V300.941H0.43z"/>
    </defs>
    <g fill="none" fill-rule="evenodd">
        <g>
            <g>
                <path fill="#1A2238" fill-rule="nonzero" d="M0.43 0.941H1400.43V300.941H0.43z" transform="translate(1 -80) translate(-1 80)"/>
                <g transform="translate(1 -80) translate(-1 80)">
                    <mask id="07c7q0bikb" fill="#fff">
                        <use xlink:href="#3o0270nfka"/>
                    </mask>
                    <g mask="url(#07c7q0bikb)">
                        <g fill-rule="nonzero" stroke="#2B3976" stroke-width="6">
                            <g>
                                <path d="M337.032 99.756c19.457 38.327 11.785 89.21-11.462 121.524-23.246 32.315-62.24 45.813-102.483 57.79-40.243 11.979-81.734 22.436-121.72 7.15-40.021-15.078-78.71-56.145-80.382-98.272-1.634-42.337 33.54-85.77 73.67-115.54 40.34-29.734 85.428-45.843 131.16-41.03 45.73 4.812 91.97 30.089 111.217 68.378z" transform="translate(-225 -170) translate(1394.145 49.941)"/>
                                <path d="M485.688 419.154c4.865 77.077-38.75 174.59-99.55 190.113-60.662 15.146-138.51-51.698-204.023-141.863-65.272-89.65-118.071-203-83.583-246.07 34.11-43.21 155.643-16.518 242.465 24.496 87.2 41.152 140.065 96.762 144.69 173.324z" transform="translate(-225 -170) translate(1394.145 49.941)"/>
                            </g>
                            <g>
                                <path d="M326.282 426.76c23.55-31.117 24.718-77.695 8.953-110.165-15.765-32.47-48.658-50.637-82.914-67.645-34.255-17.008-69.873-32.856-108.216-25.512-38.342 7.151-79.605 37.688-87.78 74.99-8.174 37.494 16.545 81.754 47.88 114.61 31.531 32.856 69.485 54.31 111.33 57.208 41.847 2.9 87.39-12.369 110.747-43.486z" transform="translate(-225 -170) scale(-1 1) rotate(-10 152.803 2688.428)"/>
                                <path d="M5.28 191.853C-11.195 123.883 12.39 30.064 64.219 6.66c51.767-23.045 131.78 24.323 204.45 94.429 72.377 69.684 137.348 162.465 113.342 206.298-23.647 43.896-136.335 39.203-220.293 16.28C77.402 300.681 21.46 259.401 5.28 191.853z" transform="translate(-225 -170) scale(-1 1) rotate(-10 152.803 2688.428)"/>
                            </g>
                        </g>
                    </g>
                </g>
            </g>
        </g>
    </g>
</svg>
