<?xml version="1.0" standalone="no"?>
<!DOCTYPE svg PUBLIC "-//W3C//DTD SVG 20010904//EN"
 "http://www.w3.org/TR/2001/REC-SVG-20010904/DTD/svg10.dtd">
<svg version="1.0" xmlns="http://www.w3.org/2000/svg"
 width="1440.000000pt" height="1440.000000pt" viewBox="0 0 1440.000000 1440.000000"
 preserveAspectRatio="xMidYMid meet">
<metadata>
Created by potrace 1.11, written by Peter Selinger 2001-2013
</metadata>
<g transform="translate(0.000000,1440.000000) scale(0.100000,-0.100000)"
fill="#000000" stroke="none">
<path d="M4549 11826 c-2 -2 -65 -7 -139 -10 -161 -8 -215 -12 -255 -21 -40
-9 -75 -13 -170 -19 -91 -7 -144 -14 -155 -21 -5 -3 -11 -1 -15 5 -4 6 -11 7
-17 4 -11 -7 -29 -9 -153 -18 -44 -3 -96 -8 -115 -10 -19 -3 -69 -7 -111 -11
-42 -3 -101 -10 -130 -14 -30 -5 -57 -7 -61 -4 -5 2 -13 1 -19 -3 -7 -4 -28
-8 -48 -10 -19 -2 -51 -6 -71 -10 -19 -3 -44 -8 -55 -9 -11 -2 -22 -4 -25 -5
-3 -1 -8 -2 -12 -2 -8 2 -132 -24 -211 -44 -34 -8 -77 -17 -94 -19 -18 -3
-104 -25 -190 -50 -148 -43 -178 -52 -228 -71 -11 -4 -24 -8 -30 -9 -5 -2 -59
-22 -120 -45 -60 -23 -120 -44 -132 -47 -13 -3 -23 -10 -23 -16 0 -6 -3 -8 -6
-4 -4 3 -28 -5 -55 -19 -27 -13 -51 -24 -54 -25 -17 -2 -125 -54 -125 -61 0
-4 -6 -8 -14 -8 -12 0 -102 -44 -174 -85 -125 -72 -188 -110 -190 -117 -2 -4
-8 -8 -12 -8 -12 0 -104 -62 -108 -72 -2 -4 -8 -8 -14 -8 -5 0 -16 -6 -23 -12
-8 -7 -50 -40 -94 -72 -45 -33 -81 -63 -81 -68 0 -4 -5 -8 -11 -8 -29 0 -327
-301 -437 -440 -45 -58 -87 -111 -92 -117 -6 -7 -7 -13 -3 -13 4 0 3 -4 -4 -8
-16 -10 -59 -75 -68 -101 -3 -12 -10 -21 -14 -21 -4 0 -18 -22 -32 -50 -13
-27 -28 -50 -32 -50 -5 0 -5 -4 -2 -10 3 -5 1 -10 -5 -10 -6 0 -8 -4 -5 -10 3
-5 3 -10 -2 -10 -4 0 -14 -15 -22 -32 -8 -18 -27 -59 -42 -91 -15 -32 -33 -75
-40 -95 -6 -20 -15 -39 -18 -42 -8 -6 -51 -129 -55 -156 -2 -11 -6 -26 -10
-32 -4 -7 -9 -20 -11 -29 -2 -10 -13 -56 -25 -103 -24 -93 -24 -94 -35 -160
-4 -25 -9 -53 -11 -62 -4 -22 -12 -105 -20 -188 -13 -153 -1 -503 21 -630 2
-14 7 -43 10 -65 5 -35 13 -83 31 -190 3 -16 17 -84 31 -150 14 -66 27 -127
28 -135 2 -8 4 -15 5 -15 1 0 3 -9 5 -20 2 -11 6 -30 9 -42 3 -13 8 -32 11
-43 3 -11 7 -29 10 -40 10 -41 15 -58 49 -175 36 -127 71 -243 86 -285 5 -14
23 -65 40 -115 17 -49 35 -99 40 -110 5 -11 21 -53 35 -94 24 -68 72 -188 115
-286 10 -22 28 -65 41 -95 13 -30 25 -57 28 -60 4 -3 7 -10 8 -17 2 -6 20 -49
42 -95 21 -46 41 -87 43 -93 2 -5 28 -57 58 -115 30 -58 54 -107 55 -110 2
-10 48 -95 58 -109 6 -7 12 -20 13 -28 2 -8 9 -22 16 -31 8 -10 20 -30 28 -47
8 -16 17 -32 20 -35 3 -3 16 -27 30 -55 14 -27 28 -52 31 -55 3 -3 23 -36 44
-75 22 -38 44 -77 50 -86 5 -9 30 -50 54 -90 24 -41 48 -75 53 -77 4 -2 8 -8
8 -13 0 -5 36 -63 80 -130 44 -66 80 -123 80 -127 0 -4 8 -15 18 -24 9 -9 42
-53 72 -98 56 -82 196 -270 260 -350 91 -112 208 -252 250 -299 85 -95 262
-280 346 -363 106 -104 112 -110 224 -208 40 -36 81 -72 90 -80 8 -8 34 -28
55 -44 22 -17 42 -33 45 -37 3 -4 26 -22 51 -41 25 -20 54 -42 65 -51 10 -9
60 -46 109 -81 50 -36 95 -69 100 -73 6 -5 46 -32 90 -60 44 -29 85 -55 91
-60 5 -4 19 -13 30 -19 10 -6 30 -17 44 -25 14 -8 27 -16 30 -19 6 -6 85 -48
230 -121 173 -86 269 -128 575 -246 22 -8 69 -26 105 -38 36 -13 97 -36 135
-50 39 -15 77 -28 85 -29 9 -1 21 -5 28 -10 6 -4 20 -9 29 -11 10 -2 29 -7 43
-10 21 -6 18 0 -20 36 -25 23 -67 59 -95 80 -27 20 -63 49 -80 63 -16 15 -40
34 -52 44 -13 9 -43 35 -67 57 -25 22 -58 51 -73 64 -15 13 -53 47 -84 75 -66
60 -106 94 -179 156 -56 47 -211 204 -276 280 -22 25 -43 50 -49 56 -5 6 -21
26 -35 44 -14 18 -30 38 -35 44 -6 6 -22 27 -35 46 -13 19 -27 37 -30 40 -7 6
-127 188 -161 245 -48 80 -152 284 -199 390 -5 11 -22 50 -39 88 -16 37 -27
67 -24 67 3 0 0 7 -7 15 -7 8 -9 15 -5 15 4 0 3 6 -3 13 -13 15 -92 248 -92
270 0 9 -5 17 -12 17 -6 0 -9 3 -6 6 4 3 2 20 -4 37 -10 33 -37 131 -44 157
-2 8 -11 44 -19 80 -9 36 -18 74 -20 85 -2 11 -14 65 -25 120 -12 55 -24 114
-26 130 -3 17 -9 53 -14 80 -8 46 -14 79 -26 160 -5 35 -11 88 -19 165 -3 30
-8 71 -11 90 -3 19 -7 66 -10 104 -5 76 -7 76 56 18 14 -13 39 -30 55 -39 17
-9 33 -20 36 -26 4 -5 31 -22 60 -38 75 -39 220 -111 244 -120 11 -5 38 -16
60 -25 52 -22 166 -64 185 -69 8 -1 42 -12 75 -24 59 -20 197 -58 245 -67 14
-3 52 -12 85 -21 33 -8 75 -17 94 -19 19 -3 37 -7 41 -9 4 -3 25 -7 46 -11 50
-7 83 -12 114 -18 14 -3 41 -8 60 -10 19 -3 46 -8 60 -11 14 -3 48 -8 75 -11
28 -4 75 -9 105 -13 l55 -7 -110 -110 c-108 -108 -162 -158 -279 -259 -32 -27
-71 -62 -87 -78 -17 -15 -33 -27 -37 -27 -5 0 -21 -12 -38 -28 -16 -15 -56
-48 -89 -72 -33 -25 -64 -48 -70 -53 -72 -55 -145 -105 -145 -100 0 4 -10 -3
-22 -14 -28 -25 -173 -118 -253 -163 -33 -19 -63 -38 -67 -44 -5 -7 -8 -7 -8
-1 0 7 -3 7 -8 0 -4 -6 -23 -18 -42 -27 l-35 -18 45 5 c25 2 56 7 70 9 14 3
42 8 62 10 21 3 63 10 95 15 32 6 74 13 93 16 19 3 55 11 80 16 25 6 52 12 60
14 8 2 27 8 43 14 15 6 27 9 27 6 0 -2 18 2 40 10 22 8 40 12 40 9 0 -2 15 2
33 9 17 8 37 15 42 16 6 1 28 7 50 13 22 6 42 12 45 12 3 1 10 4 15 7 6 3 48
18 95 33 47 15 94 31 105 36 11 5 86 36 167 69 154 63 518 240 538 261 5 5 40
25 93 53 12 7 48 29 80 50 31 20 61 37 66 37 4 0 16 9 26 20 10 11 22 20 27
20 7 0 115 74 145 100 7 5 15 10 18 10 3 0 24 15 47 32 40 33 41 33 157 34
297 3 481 10 481 16 0 4 11 3 24 -2 13 -5 26 -6 29 -4 3 3 52 7 108 9 57 3
138 7 179 10 41 4 106 8 145 10 38 2 97 7 130 10 33 4 85 8 115 10 30 2 80 7
110 10 30 4 75 8 100 10 127 11 163 15 167 18 2 2 -54 19 -124 37 -71 17 -135
35 -143 38 -8 3 -22 7 -30 9 -8 2 -19 5 -25 7 -5 1 -23 6 -40 11 -16 4 -58 16
-93 27 -34 11 -68 21 -75 22 -6 2 -19 6 -27 9 -8 3 -35 11 -60 17 -25 7 -51
17 -57 22 -7 6 -13 8 -13 5 0 -3 -58 14 -130 38 -71 24 -130 41 -130 38 0 -3
-6 -1 -12 5 -15 12 -180 67 -190 64 -27 -7 4 36 80 114 48 50 111 120 141 155
30 35 62 72 70 81 20 21 24 27 91 113 30 39 59 75 63 80 4 6 33 44 62 85 30
41 59 80 65 87 5 7 15 24 22 38 6 14 15 25 19 25 4 0 11 9 14 20 3 11 12 26
19 32 11 12 154 246 170 278 4 8 29 56 57 105 51 92 181 355 262 528 40 85 67
120 67 86 0 -11 24 -65 76 -173 19 -38 34 -75 34 -83 0 -7 4 -13 8 -13 8 0 36
-60 33 -72 0 -5 2 -8 7 -8 4 0 13 -15 20 -32 7 -18 18 -42 24 -52 6 -11 38
-72 71 -135 33 -64 66 -123 73 -131 7 -8 12 -17 11 -20 -2 -5 102 -182 112
-190 3 -3 15 -22 25 -42 11 -21 23 -38 28 -38 4 0 8 -4 8 -9 0 -12 61 -105 72
-109 4 -2 8 -8 8 -13 0 -11 36 -63 63 -91 9 -10 17 -21 17 -25 0 -5 14 -22 30
-40 17 -18 30 -35 30 -39 0 -10 223 -275 295 -350 17 -17 55 -57 85 -88 52
-54 54 -58 35 -69 -11 -6 -22 -12 -25 -12 -3 -1 -50 -16 -105 -35 -55 -19
-103 -35 -107 -36 -5 -1 -10 -3 -13 -4 -3 -1 -9 -4 -15 -5 -5 -1 -12 -4 -15
-5 -3 -1 -8 -3 -12 -5 -5 -1 -15 -4 -23 -8 -22 -9 -242 -77 -265 -81 -11 -3
-46 -14 -77 -25 -32 -11 -58 -17 -58 -14 0 3 -6 1 -12 -4 -7 -6 -47 -19 -88
-29 -41 -10 -77 -19 -80 -19 -3 -1 -12 -5 -20 -8 -8 -4 -26 -9 -40 -11 -14 -3
-34 -7 -45 -10 -75 -20 -112 -28 -122 -29 -15 0 -17 -13 -3 -22 6 -3 10 -1 10
5 0 6 5 8 13 3 6 -4 26 -9 42 -10 76 -6 130 -12 130 -13 0 -1 20 -3 45 -5 25
-1 79 -5 120 -9 41 -4 98 -9 125 -11 28 -2 79 -6 115 -9 129 -11 237 -17 350
-21 63 -2 115 -5 115 -5 0 -3 264 -11 436 -13 l184 -3 142 -100 c134 -94 273
-184 297 -193 6 -2 22 -12 36 -21 70 -48 526 -278 538 -271 1 1 23 -9 50 -23
26 -13 65 -29 87 -36 22 -7 45 -16 50 -20 6 -4 28 -13 50 -19 39 -12 53 -17
105 -39 49 -20 302 -96 360 -108 14 -3 57 -14 96 -24 70 -19 133 -31 166 -31
10 0 20 -5 23 -10 4 -5 10 -7 15 -4 4 2 32 1 61 -5 215 -37 229 -36 139 11
-25 13 -53 30 -62 38 -10 8 -18 11 -18 7 0 -4 -18 7 -40 24 -22 17 -40 30 -40
27 0 -4 -149 89 -175 110 -6 4 -37 26 -70 48 -33 22 -62 42 -65 45 -3 3 -48
37 -100 76 -52 39 -105 80 -117 90 -43 38 -63 54 -67 54 -3 0 -17 12 -33 28
-16 15 -60 54 -98 87 -83 72 -325 307 -325 316 0 4 30 10 68 14 37 4 76 9 87
11 11 2 40 6 65 8 25 3 45 5 45 6 0 1 11 3 25 5 14 2 37 6 53 9 27 5 121 22
174 32 16 3 48 10 73 15 25 6 56 13 70 15 14 3 33 7 42 10 9 3 25 6 35 8 71
15 394 116 473 149 14 6 27 11 30 12 3 0 20 9 37 18 18 10 35 17 38 16 9 -1
199 93 205 102 3 4 17 13 30 18 25 11 61 32 70 41 3 3 23 18 45 35 22 16 42
31 45 34 3 4 13 13 24 21 17 14 18 11 11 -60 -13 -137 -14 -155 -21 -205 -4
-27 -8 -66 -10 -85 -1 -19 -4 -37 -5 -40 -1 -3 -3 -16 -4 -30 -2 -14 -4 -27
-5 -30 -3 -10 -7 -36 -14 -89 -4 -29 -8 -56 -10 -60 -2 -3 -7 -31 -11 -61 -4
-30 -9 -58 -11 -61 -2 -4 -6 -24 -9 -45 -4 -22 -8 -47 -11 -56 -3 -10 -8 -30
-11 -45 -8 -42 -11 -58 -13 -58 -1 0 -4 -11 -6 -24 -2 -14 -12 -52 -20 -85 -9
-34 -18 -68 -19 -76 -2 -8 -4 -15 -5 -15 -1 0 -3 -7 -5 -15 -12 -61 -91 -306
-138 -430 -61 -159 -182 -418 -202 -432 -5 -4 -6 -8 -1 -8 5 0 2 -8 -7 -17 -8
-10 -16 -21 -16 -26 0 -9 -46 -88 -81 -142 -91 -136 -119 -178 -169 -245 -31
-41 -58 -77 -61 -80 -3 -3 -22 -26 -42 -51 -40 -50 -140 -159 -204 -223 -46
-46 -80 -77 -173 -156 -36 -30 -74 -64 -86 -75 -12 -11 -56 -51 -100 -90 -43
-38 -83 -75 -89 -80 -6 -6 -33 -28 -61 -50 -27 -22 -54 -46 -58 -52 -4 -7 -12
-13 -18 -13 -5 0 -20 -11 -33 -25 -13 -14 -27 -25 -32 -25 -4 0 -17 -9 -29
-20 -11 -11 -42 -40 -70 -65 l-50 -45 145 51 c80 27 150 51 155 53 6 2 17 6
25 9 79 31 240 90 258 94 12 3 22 9 22 14 0 5 3 8 8 8 4 -1 10 0 15 1 4 1 10
3 15 5 14 4 129 52 232 97 181 79 567 293 578 320 2 4 9 8 15 8 7 0 25 11 41
25 16 14 33 25 37 25 4 0 14 6 21 13 7 7 36 28 63 47 28 18 54 40 58 47 4 7
14 13 22 13 7 0 15 3 17 8 2 4 39 35 83 70 117 92 139 110 261 219 204 180
452 432 599 608 28 33 62 72 78 87 15 14 27 30 27 35 0 5 10 19 23 30 12 11
31 33 42 48 11 16 27 35 35 43 8 9 22 25 30 38 8 12 57 76 108 142 50 67 92
125 92 131 0 5 4 11 8 13 5 2 33 39 63 83 30 44 58 84 62 90 21 26 117 178
117 185 0 5 4 10 8 12 11 4 92 135 92 148 0 5 4 10 8 10 5 0 14 10 20 23 7 12
25 45 42 72 16 28 35 61 42 75 7 14 23 40 36 58 14 17 21 32 17 32 -5 0 -2 8
6 18 24 29 63 102 192 352 55 107 102 200 105 205 4 6 7 15 8 20 2 6 34 79 73
163 39 85 71 160 71 168 0 8 5 14 10 14 6 0 10 6 10 13 0 7 16 50 35 95 19 45
31 82 27 82 -4 0 -2 4 3 8 12 9 28 50 116 305 37 108 65 197 61 197 -3 0 -1 5
6 12 7 7 12 22 12 35 0 13 4 23 8 23 4 0 8 9 9 19 1 11 11 52 23 92 12 40 24
83 26 96 2 12 9 34 14 48 5 14 7 25 4 25 -4 0 -1 6 5 14 6 8 11 18 10 22 -1 5
0 11 1 14 1 3 3 14 5 24 2 11 11 49 19 85 9 37 18 77 21 91 2 14 9 43 14 65 5
22 12 56 15 75 3 19 8 46 11 60 2 13 7 42 10 65 3 22 9 49 12 59 3 11 7 33 8
50 7 71 18 164 25 211 8 51 4 528 -5 600 -13 103 -41 253 -53 285 -3 8 -7 25
-9 36 -4 23 -57 190 -93 289 -25 71 -149 327 -162 336 -6 3 -9 9 -9 12 1 11
-33 68 -56 97 -13 15 -23 31 -23 35 0 10 -102 149 -112 153 -5 2 -8 8 -8 14 0
5 -6 15 -12 23 -7 7 -33 37 -58 66 -56 67 -279 290 -344 344 -27 22 -57 47
-67 55 -9 8 -30 24 -45 35 -15 11 -39 29 -53 40 -76 61 -327 220 -441 280
-170 89 -375 185 -395 185 -8 0 -17 5 -20 10 -4 6 -10 8 -15 5 -4 -3 -13 2
-20 10 -7 8 -20 15 -30 15 -9 0 -50 14 -90 30 -40 17 -80 30 -89 30 -10 0 -21
4 -27 8 -5 5 -29 15 -54 22 -25 7 -72 22 -105 33 -33 10 -68 21 -78 23 -10 2
-27 6 -37 9 -18 6 -39 11 -89 21 -13 3 -32 9 -43 15 -10 5 -18 8 -18 5 0 -3
-15 0 -32 5 -18 5 -46 12 -63 15 -16 3 -50 10 -75 15 -25 6 -54 12 -65 14 -11
2 -31 6 -45 9 -14 2 -41 7 -60 10 -19 3 -46 8 -60 11 -23 4 -58 8 -170 21 -46
5 -85 11 -85 14 0 1 -29 3 -65 5 -36 2 -90 7 -120 10 -30 4 -73 8 -95 10 -179
15 -241 20 -356 29 -41 3 -91 8 -110 11 -19 3 -52 7 -74 10 -22 4 -51 8 -65
10 -128 20 -391 20 -585 -1 -101 -10 -121 -13 -145 -18 -13 -3 -39 -7 -57 -8
-18 -1 -33 -5 -33 -8 0 -3 -16 -6 -36 -8 -20 -1 -82 -14 -137 -28 -56 -14
-106 -27 -112 -28 -5 -1 -50 -15 -100 -31 -49 -16 -92 -30 -95 -30 -16 -5 -67
-26 -82 -35 -10 -6 -22 -10 -28 -10 -30 0 -431 -211 -438 -231 -2 -5 -8 -9
-13 -9 -9 0 -106 -69 -169 -119 -14 -12 -38 -31 -55 -43 -33 -26 -270 -260
-300 -298 -11 -13 -28 -36 -37 -50 -16 -23 -18 -23 -19 -5 0 11 -1 139 -3 285
-3 238 -5 271 -24 322 -11 31 -26 67 -33 80 -7 12 -13 25 -14 28 0 3 -18 28
-39 55 -103 130 -250 204 -410 207 -57 1 -149 -11 -171 -22 -3 -1 -8 -3 -12
-4 -19 -4 -120 -56 -142 -72 -87 -68 -170 -183 -195 -271 -4 -12 -10 -32 -13
-45 -4 -13 -9 -148 -10 -301 l-4 -279 -37 47 c-61 76 -285 298 -357 353 -5 4
-28 21 -50 37 -22 17 -42 32 -45 35 -15 15 -71 50 -80 50 -5 0 -10 4 -10 8 0
17 -239 148 -396 217 -79 35 -320 126 -331 125 -2 0 -4 0 -5 1 -2 0 -10 2 -18
4 -8 1 -62 14 -120 29 -108 26 -153 35 -205 41 -16 2 -32 5 -35 6 -3 1 -9 3
-15 4 -5 2 -12 4 -15 5 -3 1 -28 3 -56 5 -28 1 -59 5 -70 8 -10 4 -73 9 -138
12 -65 3 -122 8 -126 10 -4 2 -9 3 -11 1z m-502 -649 c11 -3 43 -9 70 -12 60
-9 263 -65 308 -85 30 -13 99 -43 105 -45 7 -1 148 -73 185 -94 57 -32 150
-94 153 -102 2 -5 10 -9 17 -9 8 0 18 -6 22 -14 4 -8 11 -14 15 -13 3 1 20
-10 37 -25 17 -16 33 -28 35 -28 15 0 245 -226 311 -305 28 -33 52 -62 55 -65
3 -3 17 -21 30 -40 13 -19 27 -37 30 -40 14 -11 150 -234 150 -246 0 -7 3 -14
8 -16 9 -4 75 -140 112 -233 53 -133 114 -326 123 -392 3 -17 7 -36 10 -40 6
-9 20 -87 21 -115 0 -10 3 -18 6 -18 3 0 5 -15 4 -32 0 -18 3 -40 7 -49 4 -8
11 -53 15 -100 3 -46 8 -102 10 -124 5 -56 5 -399 0 -460 -13 -147 -25 -255
-32 -289 -3 -12 -7 -37 -9 -58 -2 -20 -9 -62 -16 -95 -6 -32 -13 -67 -15 -78
-3 -18 -38 -166 -49 -207 -8 -29 -16 -61 -21 -88 -3 -13 -8 -27 -12 -30 -4 -3
-8 -14 -10 -25 -4 -22 -75 -236 -94 -282 -6 -15 -12 -30 -13 -33 -1 -3 -5 -12
-8 -20 -11 -26 -30 -75 -32 -80 0 -3 -9 -23 -19 -45 -10 -22 -21 -49 -26 -60
-4 -11 -17 -40 -29 -63 -11 -24 -21 -50 -21 -58 0 -8 -4 -14 -10 -14 -5 0 -10
-9 -10 -19 0 -11 -3 -21 -7 -23 -5 -1 -36 -59 -70 -128 -35 -69 -85 -163 -113
-210 -27 -47 -55 -96 -62 -110 -7 -14 -15 -27 -18 -30 -3 -3 -10 -14 -17 -25
-92 -153 -86 -146 -118 -140 -16 3 -31 10 -33 15 -2 6 -10 10 -17 10 -15 0 -9
-3 -375 179 -245 121 -362 182 -465 241 -22 13 -60 34 -85 48 -25 14 -87 50
-138 81 -51 31 -101 61 -110 66 -54 31 -98 60 -103 68 -3 5 -8 8 -10 6 -6 -3
-327 204 -339 220 -10 12 -69 51 -79 51 -5 0 -11 3 -13 8 -1 4 -41 35 -88 69
-47 34 -89 66 -95 70 -5 5 -48 38 -95 74 -47 37 -95 75 -107 85 -12 11 -32 27
-45 38 -12 10 -50 42 -83 70 -33 28 -65 55 -71 60 -7 4 -25 20 -42 35 -45 38
-82 66 -212 162 -101 74 -116 88 -104 100 7 8 15 23 16 34 2 11 8 27 13 35 5
8 10 17 11 20 0 3 10 26 22 53 12 26 32 68 44 95 12 26 22 49 23 52 0 3 14 32
29 65 16 33 45 98 66 145 21 47 50 112 66 145 15 33 28 62 29 65 1 3 12 28 24
55 118 251 126 277 126 401 0 66 -4 89 -25 130 -38 75 -114 134 -190 148 -14
2 -25 5 -25 6 0 1 -25 3 -55 4 -56 2 -168 -23 -230 -52 -50 -23 -142 -85 -185
-127 -21 -19 -40 -35 -42 -35 -6 0 -65 -68 -109 -128 -55 -73 -123 -188 -228
-386 -14 -27 -26 -55 -26 -62 0 -29 -27 -17 -52 23 -16 24 -28 48 -28 53 0 4
-4 10 -9 12 -19 7 -121 225 -161 348 -31 92 -39 143 -40 235 0 112 10 163 57
304 19 58 38 108 42 111 3 3 7 12 9 20 7 31 93 199 156 304 36 60 66 113 66
118 0 4 3 8 8 8 4 0 22 24 40 53 28 45 54 65 188 152 86 55 162 106 169 113 8
6 16 12 20 12 5 0 90 55 120 77 12 9 66 38 190 102 50 25 92 49 95 52 8 10
397 199 409 199 7 0 23 7 36 16 14 9 25 12 25 8 0 -5 4 -4 8 2 6 10 257 101
301 109 9 2 16 4 16 5 0 1 11 4 25 6 14 3 41 9 60 14 42 11 80 18 185 35 77
12 365 14 412 2z m6738 -1 c44 -9 97 -18 122 -21 12 -2 27 -6 33 -10 6 -4 21
-8 33 -10 12 -1 42 -8 67 -15 25 -7 52 -14 60 -16 26 -6 153 -51 190 -67 19
-8 37 -15 40 -15 3 1 31 -11 63 -26 32 -14 60 -26 63 -26 3 0 73 -33 155 -74
82 -41 149 -72 149 -68 0 4 4 3 8 -3 4 -5 23 -18 42 -29 19 -10 78 -41 130
-68 138 -73 154 -82 160 -89 3 -3 20 -14 39 -23 18 -10 55 -33 81 -52 26 -19
52 -34 59 -34 6 0 11 -4 11 -8 0 -5 12 -15 27 -23 15 -8 74 -44 130 -81 56
-38 106 -68 110 -68 10 0 55 -56 53 -66 -1 -4 3 -10 8 -13 9 -6 94 -133 118
-176 6 -11 21 -38 34 -60 110 -193 213 -459 222 -573 1 -19 6 -36 10 -38 4 -3
3 -16 -2 -29 -6 -15 -6 -27 1 -30 5 -4 7 -10 4 -15 -3 -4 -7 -33 -10 -64 -6
-55 -45 -210 -65 -251 -96 -207 -132 -277 -157 -303 -7 -7 -13 -17 -13 -21 0
-4 -11 -21 -25 -37 -15 -16 -25 -24 -23 -19 2 12 -21 85 -32 100 -9 12 -46 78
-86 155 -16 30 -31 57 -34 60 -3 3 -14 21 -24 40 -39 71 -103 154 -183 236
-45 46 -85 84 -88 84 -3 0 -15 9 -27 20 -12 11 -34 26 -50 32 -15 7 -28 16
-28 20 0 5 -4 8 -9 8 -5 0 -26 8 -47 17 -22 10 -43 18 -49 18 -5 0 -16 4 -23
8 -43 27 -189 26 -262 -2 -111 -42 -170 -126 -178 -251 -4 -74 15 -178 41
-225 6 -11 12 -22 12 -25 3 -12 29 -71 64 -145 21 -44 44 -97 52 -117 7 -21
17 -38 21 -38 4 0 8 -6 8 -13 0 -8 14 -41 30 -75 17 -34 30 -68 30 -75 0 -7 4
-17 9 -23 5 -5 50 -101 100 -214 50 -113 96 -213 101 -222 6 -10 10 -20 10
-22 0 -2 -37 -30 -81 -63 -73 -52 -111 -81 -230 -175 -32 -25 -51 -41 -109
-91 -32 -28 -148 -123 -195 -162 -21 -16 -44 -36 -51 -42 -7 -7 -17 -13 -22
-13 -6 0 -12 -3 -14 -8 -3 -7 -117 -96 -183 -142 -20 -14 -42 -30 -48 -36 -7
-5 -40 -29 -73 -52 -34 -23 -69 -48 -77 -57 -9 -8 -18 -15 -22 -15 -3 0 -45
-26 -93 -58 -48 -32 -123 -80 -167 -107 -44 -27 -82 -52 -85 -56 -3 -3 -21
-14 -40 -24 -19 -9 -43 -25 -54 -34 -10 -9 -21 -16 -25 -15 -3 0 -29 -14 -58
-33 -29 -18 -56 -33 -61 -33 -5 0 -15 -7 -22 -15 -7 -8 -16 -12 -21 -10 -4 3
-12 -3 -18 -12 -6 -10 -11 -15 -11 -11 0 4 -24 -7 -52 -24 -54 -31 -117 -66
-263 -143 -44 -23 -93 -50 -110 -59 -16 -9 -36 -16 -42 -16 -7 0 -13 -4 -13
-10 0 -5 -5 -10 -10 -10 -6 0 -75 -31 -153 -69 -193 -94 -294 -140 -320 -146
-24 -5 -22 -8 -144 195 -35 58 -70 116 -78 130 -9 14 -25 45 -37 70 -12 25
-24 47 -27 50 -4 3 -13 19 -21 35 -8 17 -19 33 -25 37 -5 4 -6 8 -2 8 5 0 -10
34 -32 75 -23 41 -41 81 -41 89 0 7 -7 19 -15 26 -9 7 -14 15 -11 17 2 3 -11
37 -29 76 -18 40 -40 88 -48 107 -17 38 -67 169 -71 185 -5 19 -17 50 -27 67
-5 10 -9 25 -9 33 0 8 -4 23 -9 33 -18 32 -99 319 -117 410 -2 12 -6 32 -8 45
-2 12 -9 42 -14 67 -5 25 -10 52 -11 60 -1 19 -9 67 -15 100 -41 215 -52 695
-21 884 3 17 7 54 11 81 6 54 9 73 17 120 4 17 9 46 12 65 3 19 13 62 21 95 9
33 18 67 19 75 14 57 40 136 47 138 4 2 6 7 3 12 -8 12 95 261 150 365 66 124
69 129 76 135 3 3 14 20 24 39 9 19 21 39 26 45 35 44 79 108 79 115 0 5 3 11
8 13 4 2 32 32 62 68 30 36 70 80 88 99 17 20 32 39 32 43 0 4 4 8 8 8 5 0 38
28 74 63 83 78 106 97 119 97 5 0 7 5 4 10 -3 6 1 10 9 10 9 0 16 5 16 11 0 5
5 7 10 4 6 -3 10 1 10 9 0 9 4 16 8 16 7 0 180 110 217 138 50 37 356 170 407
176 3 1 10 4 14 9 4 4 17 7 29 7 12 0 25 3 28 7 4 3 17 7 29 9 13 1 34 5 48 8
43 9 74 15 114 21 22 3 42 7 44 9 6 6 353 -1 387 -8z"/>
</g>
</svg>
